<svg width="16" height="16" viewBox="0 0 16 16" fill="none" xmlns="http://www.w3.org/2000/svg">
<mask id="mask0_59_2" style="mask-type:alpha" maskUnits="userSpaceOnUse" x="0" y="0" width="16" height="16">
<path fill-rule="evenodd" clip-rule="evenodd" d="M16 0H0V16H9.5V15V14.7016L9.10957 15.0139L5.98609 11.1096L7.93826 9.54783L10.4383 7.54783L12 6.29844L13.5617 7.54783L16 9.49844V0ZM16 13.627L14.8904 15.0139L14.5 14.7016V15V16H16V13.627Z" fill="#D9D9D9"/>
</mask>
<g mask="url(#mask0_59_2)">
<path fill-rule="evenodd" clip-rule="evenodd" d="M5.04332 3.69112C5.77315 3.79626 6.50101 3.97347 7.18983 4.24908L4.667 8.63876L0.164307 3.84214C0.422784 3.79488 0.732435 3.74476 1.08149 3.70024C2.15617 3.56318 3.58781 3.48142 5.04332 3.69112ZM2.78013 13.9288L4.85971 10.3103L8.25554 13.9288H2.78013ZM9.74967 4.6353C9.39841 4.33094 9.02548 4.0687 8.63799 3.84336L8.59572 3.81889C8.9735 3.26249 9.90564 2.24662 11.7373 2.07031H15.9411L12.1287 8.70069C11.6854 6.89481 10.8354 5.57613 9.74967 4.6353ZM9.31637 13.5916L5.38364 9.40219L8.0947 4.6845C8.14089 4.71093 8.18679 4.73792 8.23239 4.76549C9.7591 5.6909 10.9972 7.2898 11.3576 10.0393L9.31637 13.5916Z" fill="black"/>
</g>
<path d="M12 14V9.5M9.5 11.5L12 9.5L14.5 11.5" stroke="black" stroke-width="2" stroke-linecap="square"/>
</svg>
