<svg width="16" height="16" viewBox="0 0 16 16" fill="none" xmlns="http://www.w3.org/2000/svg">
<mask id="mask0_59_12" style="mask-type:alpha" maskUnits="userSpaceOnUse" x="0" y="0" width="16" height="16">
<path fill-rule="evenodd" clip-rule="evenodd" d="M14.4645 0H12.877L13.5617 0.547828L13.7589 0.705562L14.2322 0.232233L14.4645 0ZM11.123 0H0V16H9.46447L9.23223 15.7678L7.73223 14.2678L5.96447 12.5L9.5 8.96447V7.70156L9.10957 8.01391L5.98609 4.10957L7.93826 2.54783L10.4383 0.547828L11.123 0ZM12.5355 16H16V12.5355L12.7678 15.7678L12.5355 16ZM16 8.46447V6.62695L15.1833 7.64779L16 8.46447Z" fill="#D9D9D9"/>
</mask>
<g mask="url(#mask0_59_12)">
<path fill-rule="evenodd" clip-rule="evenodd" d="M5.04332 3.69112C5.77315 3.79626 6.50101 3.97347 7.18983 4.24908L4.667 8.63876L0.164307 3.84214C0.422784 3.79488 0.732435 3.74476 1.08149 3.70024C2.15617 3.56318 3.58781 3.48142 5.04332 3.69112ZM2.78013 13.9288L4.85971 10.3103L8.25554 13.9288H2.78013ZM9.74967 4.6353C9.39841 4.33094 9.02548 4.0687 8.63799 3.84336L8.59572 3.81889C8.9735 3.26249 9.90564 2.24662 11.7373 2.07031H15.9411L12.1287 8.70069C11.6854 6.89481 10.8354 5.57613 9.74967 4.6353ZM9.31637 13.5916L5.38364 9.40219L8.0947 4.6845C8.14089 4.71093 8.18679 4.73792 8.23239 4.76549C9.7591 5.6909 10.9972 7.2898 11.3576 10.0393L9.31637 13.5916Z" fill="#ffffff"/>
</g>
<path d="M9.5 12.5L11 14L14.5 10.5" stroke="#ffffff" stroke-width="2" stroke-linecap="square"/>
<path d="M12 7V2.5M9.5 4.5L12 2.5L14.5 4.5" stroke="#ffffff" stroke-width="2" stroke-linecap="square"/>
</svg>
